<svg xmlns="http://www.w3.org/2000/svg" xmlns:xlink="http://www.w3.org/1999/xlink" viewBox="0 0 64 64" fill="#FFFFFF">
  <path d="M32 4.171875C14.355469 4.171875 0 15.648438 0 29.757813C0 38.632813 5.558594 46.675781 14.90625 51.394531C14.734375 53.742188 14.097656 57.652344 11.902344 61.3125C11.695313 61.65625 11.714844 62.089844 11.949219 62.410156C12.136719 62.675781 12.441406 62.828125 12.761719 62.828125C12.832031 62.828125 12.90625 62.820313 12.976563 62.804688C20.546875 61.121094 24.097656 56.804688 25.378906 54.789063C27.566406 55.15625 29.789063 55.34375 32 55.34375C49.648438 55.34375 64 43.867188 64 29.761719C64 15.652344 49.644531 4.171875 32 4.171875 Z M 32 6.171875C48.542969 6.171875 62 16.753906 62 29.757813C62 42.761719 48.542969 53.34375 32 53.34375C29.679688 53.34375 27.34375 53.128906 25.058594 52.703125C24.632813 52.621094 24.203125 52.824219 23.996094 53.203125C23.324219 54.429688 20.800781 58.261719 14.714844 60.257813C16.425781 56.523438 16.851563 52.867188 16.941406 50.839844C16.960938 50.441406 16.738281 50.066406 16.378906 49.890625C7.375 45.5625 2 38.035156 2 29.761719C2 16.753906 15.457031 6.171875 32 6.171875 Z M 32 10C18.238281 10 7.042969 18.972656 7.042969 30C7.042969 31.34375 7.210938 32.6875 7.539063 33.996094C7.652344 34.449219 8.0625 34.75 8.507813 34.75C8.589844 34.75 8.675781 34.742188 8.757813 34.71875C9.292969 34.585938 9.617188 34.042969 9.480469 33.507813C9.191406 32.359375 9.042969 31.179688 9.042969 30C9.042969 20.074219 19.339844 12 32 12C36.066406 12 40.0625 12.84375 43.554688 14.449219C44.054688 14.675781 44.648438 14.457031 44.878906 13.953125C45.109375 13.453125 44.890625 12.859375 44.390625 12.628906C40.636719 10.910156 36.351563 10 32 10 Z M 48.054688 15.019531C47.800781 15.058594 47.566406 15.195313 47.402344 15.421875C47.078125 15.867188 47.175781 16.492188 47.621094 16.816406C48.515625 17.472656 49.351563 18.183594 50.101563 18.9375C50.296875 19.136719 50.554688 19.234375 50.8125 19.234375C51.066406 19.234375 51.320313 19.136719 51.515625 18.941406C51.910156 18.550781 51.910156 17.917969 51.519531 17.527344C50.695313 16.699219 49.78125 15.914063 48.796875 15.199219C48.574219 15.035156 48.308594 14.980469 48.054688 15.019531 Z M 34 18C32.894531 18 32 18.894531 32 20C32 21.105469 32.894531 22 34 22C35.105469 22 36 21.105469 36 20C36 18.894531 35.105469 18 34 18 Z M 53.472656 20.8125C53.347656 20.832031 53.21875 20.875 53.101563 20.949219C52.628906 21.234375 52.476563 21.847656 52.765625 22.320313C54.21875 24.730469 54.957031 27.3125 54.957031 30C54.957031 38.195313 47.894531 45.359375 37.789063 47.421875C37.25 47.53125 36.898438 48.0625 37.011719 48.601563C37.105469 49.074219 37.523438 49.402344 37.988281 49.402344C38.054688 49.402344 38.121094 49.394531 38.1875 49.378906C49.238281 47.125 56.957031 39.15625 56.957031 30C56.957031 26.945313 56.121094 24.011719 54.472656 21.285156C54.261719 20.929688 53.859375 20.757813 53.472656 20.8125 Z M 31.039063 24C30.558594 24 30.078125 24.398438 30.078125 25C30.078125 25.601563 30.4375 26 31.039063 26L31.847656 26L30.132813 38L28.039063 38C27.558594 38 27.078125 38.398438 27.078125 39C27.078125 39.601563 27.4375 40 28.039063 40L34 40C34.601563 40 34.960938 39.601563 34.960938 39C34.960938 38.398438 34.601563 38 34 38L32.152344 38L33.867188 26L35 26C35.601563 26 35.960938 25.601563 35.960938 25C35.960938 24.398438 35.601563 24 35 24 Z M 12.945313 36.8125C12.695313 36.765625 12.421875 36.820313 12.199219 36.976563L10.558594 38.121094C10.105469 38.4375 9.996094 39.0625 10.3125 39.515625C10.507813 39.792969 10.816406 39.941406 11.132813 39.941406C11.332031 39.941406 11.527344 39.882813 11.703125 39.761719L13.34375 38.613281C13.796875 38.296875 13.90625 37.675781 13.589844 37.222656C13.433594 36.996094 13.195313 36.855469 12.945313 36.8125 Z M 16.386719 40.84375C16.128906 40.867188 15.882813 40.984375 15.703125 41.199219L14.417969 42.730469C14.0625 43.152344 14.117188 43.78125 14.542969 44.136719C14.726563 44.292969 14.957031 44.371094 15.183594 44.371094C15.46875 44.371094 15.75 44.25 15.949219 44.015625L17.234375 42.484375C17.589844 42.058594 17.535156 41.429688 17.113281 41.074219C16.902344 40.898438 16.640625 40.820313 16.386719 40.84375 Z M 21.128906 43.792969C20.738281 43.777344 20.359375 43.988281 20.1875 44.363281L19.339844 46.175781C19.105469 46.675781 19.320313 47.273438 19.820313 47.507813C19.957031 47.570313 20.101563 47.601563 20.246094 47.601563C20.621094 47.601563 20.980469 47.386719 21.152344 47.023438L21.996094 45.214844C22.230469 44.714844 22.015625 44.117188 21.515625 43.886719C21.390625 43.828125 21.257813 43.796875 21.128906 43.792969 Z M 26.492188 45.457031C25.945313 45.363281 25.429688 45.726563 25.332031 46.269531L24.984375 48.238281C24.886719 48.78125 25.253906 49.300781 25.796875 49.394531C25.855469 49.40625 25.914063 49.410156 25.96875 49.410156C26.445313 49.410156 26.867188 49.070313 26.953125 48.585938L27.304688 46.617188C27.402344 46.074219 27.035156 45.554688 26.492188 45.457031 Z M 31.710938 45.6875C31.160156 45.738281 30.753906 46.222656 30.800781 46.769531L30.972656 48.765625C31.019531 49.285156 31.453125 49.679688 31.96875 49.679688C31.996094 49.679688 32.027344 49.679688 32.054688 49.675781C32.605469 49.628906 33.011719 49.144531 32.964844 48.59375L32.792969 46.597656C32.746094 46.050781 32.25 45.636719 31.710938 45.6875Z" fill="#FFFFFF" />
</svg>