<svg xmlns="http://www.w3.org/2000/svg" xmlns:xlink="http://www.w3.org/1999/xlink" viewBox="0 0 64 64" fill="#FFFFFF">
  <path d="M9 6C7.347656 6 6 7.347656 6 9L6 53C6 54.652344 7.347656 56 9 56L44.34375 56C45.679688 56 46.933594 55.480469 47.878906 54.535156L56.535156 45.878906C57.480469 44.933594 58 43.679688 58 42.34375L58 9C58 7.347656 56.652344 6 55 6 Z M 9 8L55 8C55.550781 8 56 8.449219 56 9L56 41.957031L46.957031 41.957031C45.304688 41.957031 43.957031 43.304688 43.957031 44.957031L43.957031 54L9 54C8.449219 54 8 53.550781 8 53L8 9C8 8.449219 8.449219 8 9 8 Z M 12 10C11.449219 10 11 10.449219 11 11L11 13C11 13.550781 11.449219 14 12 14C12.550781 14 13 13.550781 13 13L13 11C13 10.449219 12.550781 10 12 10 Z M 17 10C16.449219 10 16 10.449219 16 11L16 13C16 13.550781 16.449219 14 17 14C17.550781 14 18 13.550781 18 13L18 11C18 10.449219 17.550781 10 17 10 Z M 22 10C21.449219 10 21 10.449219 21 11L21 13C21 13.550781 21.449219 14 22 14C22.550781 14 23 13.550781 23 13L23 11C23 10.449219 22.550781 10 22 10 Z M 27 10C26.449219 10 26 10.449219 26 11L26 13C26 13.550781 26.449219 14 27 14C27.550781 14 28 13.550781 28 13L28 11C28 10.449219 27.550781 10 27 10 Z M 32 10C31.449219 10 31 10.449219 31 11L31 13C31 13.550781 31.449219 14 32 14C32.550781 14 33 13.550781 33 13L33 11C33 10.449219 32.550781 10 32 10 Z M 37 10C36.449219 10 36 10.449219 36 11L36 13C36 13.550781 36.449219 14 37 14C37.550781 14 38 13.550781 38 13L38 11C38 10.449219 37.550781 10 37 10 Z M 42 10C41.449219 10 41 10.449219 41 11L41 13C41 13.550781 41.449219 14 42 14C42.550781 14 43 13.550781 43 13L43 11C43 10.449219 42.550781 10 42 10 Z M 47 10C46.449219 10 46 10.449219 46 11L46 13C46 13.550781 46.449219 14 47 14C47.550781 14 48 13.550781 48 13L48 11C48 10.449219 47.550781 10 47 10 Z M 52 10C51.449219 10 51 10.449219 51 11L51 13C51 13.550781 51.449219 14 52 14C52.550781 14 53 13.550781 53 13L53 11C53 10.449219 52.550781 10 52 10 Z M 17 28C16.449219 28 16 28.449219 16 29C16 29.550781 16.449219 30 17 30L35 30C35.550781 30 36 29.550781 36 29C36 28.449219 35.550781 28 35 28 Z M 39 28C38.449219 28 38 28.449219 38 29C38 29.550781 38.449219 30 39 30L45 30C45.550781 30 46 29.550781 46 29C46 28.449219 45.550781 28 45 28 Z M 17 34C16.449219 34 16 34.449219 16 35C16 35.550781 16.449219 36 17 36L39 36C39.550781 36 40 35.550781 40 35C40 34.449219 39.550781 34 39 34 Z M 46.957031 43.957031L55.527344 43.957031C55.410156 44.136719 55.277344 44.308594 55.121094 44.464844L46.464844 53.121094C46.3125 53.273438 46.140625 53.40625 45.957031 53.519531L45.957031 44.957031C45.957031 44.40625 46.40625 43.957031 46.957031 43.957031Z" fill="#FFFFFF" />
</svg>