<svg xmlns="http://www.w3.org/2000/svg" xmlns:xlink="http://www.w3.org/1999/xlink" viewBox="0 0 64 64" fill="#FFFFFF">
  <path d="M26 2C23.796875 2 20.652344 2.6875 18.691406 4.007813C14.96875 4.140625 12.417969 6.757813 12.003906 10.902344C11.746094 13.460938 11.984375 15.292969 12.136719 16.503906C12.191406 16.925781 12.25 17.402344 12.230469 17.542969C12.195313 17.730469 12.167969 17.917969 12.140625 18.105469C11.976563 18.113281 11.828125 18.136719 11.703125 18.171875C10.804688 18.414063 10.171875 19.214844 9.921875 20.433594C9.722656 21.410156 9.785156 22.597656 10.101563 23.777344C10.636719 25.773438 11.757813 27.273438 12.984375 27.734375C13.617188 29.671875 14.546875 31.597656 15.703125 33.332031L6.484375 38.671875C2.484375 40.984375 0 45.296875 0 49.917969L0 57C0 58.652344 1.347656 60 3 60L28.765625 60L28.410156 62.457031C28.367188 62.769531 28.472656 63.082031 28.695313 63.308594C28.882813 63.496094 29.136719 63.597656 29.402344 63.597656C29.449219 63.597656 29.496094 63.597656 29.546875 63.589844L34.464844 62.886719L40.851563 62.207031C41.082031 62.183594 41.289063 62.082031 41.453125 61.921875L59.296875 44.019531L62.121094 41.191406C63.066406 40.25 63.589844 38.992188 63.589844 37.65625C63.585938 36.320313 63.066406 35.066406 62.121094 34.121094L57.878906 29.878906C55.929688 27.929688 52.757813 27.929688 50.808594 29.878906L48.734375 31.949219L48.734375 31.953125L48.578125 32.105469L47.980469 32.707031C47.976563 32.710938 47.980469 32.710938 47.976563 32.714844L44.941406 35.753906C44.933594 35.765625 44.917969 35.769531 44.90625 35.78125C44.898438 35.789063 44.898438 35.804688 44.886719 35.8125L43.3125 37.394531L36.296875 33.332031C37.453125 31.597656 38.382813 29.671875 39.015625 27.734375C40.242188 27.273438 41.363281 25.773438 41.898438 23.777344C42.636719 21.023438 41.945313 18.613281 40.296875 18.171875C40.171875 18.140625 40.023438 18.113281 39.859375 18.109375C39.71875 17.039063 39.449219 16.039063 38.941406 14.671875C38.929688 14.628906 38.917969 14.59375 38.90625 14.5625C39.257813 14.589844 39.824219 14.734375 40.285156 14.925781C40.632813 15.070313 41.027344 15.007813 41.3125 14.765625C41.59375 14.527344 41.726563 14.148438 41.644531 13.785156C40.035156 6.40625 34.558594 2 27 2 Z M 26 4L27 4C33.070313 4 37.453125 7.101563 39.25 12.582031C38.5625 12.503906 37.847656 12.585938 37.355469 13.0625C36.972656 13.425781 36.613281 14.125 37.066406 15.359375C37.683594 17.039063 37.90625 18.027344 37.96875 19.433594C37.988281 19.792969 38.195313 20.113281 38.511719 20.277344C38.832031 20.4375 39.214844 20.417969 39.515625 20.222656C39.675781 20.117188 39.765625 20.105469 39.78125 20.105469C40.023438 20.1875 40.460938 21.40625 39.96875 23.257813C39.472656 25.101563 38.53125 25.878906 38.234375 25.878906C37.792969 25.878906 37.402344 26.171875 37.277344 26.59375C35.589844 32.261719 31.175781 38 26 38C20.820313 38 16.410156 32.261719 14.726563 26.59375C14.601563 26.171875 14.210938 25.878906 13.765625 25.878906C13.472656 25.878906 12.527344 25.101563 12.035156 23.257813C11.800781 22.386719 11.746094 21.503906 11.882813 20.832031C11.996094 20.273438 12.191406 20.109375 12.214844 20.105469C12.21875 20.105469 12.304688 20.105469 12.488281 20.222656C12.789063 20.417969 13.167969 20.4375 13.488281 20.277344C13.804688 20.113281 14.015625 19.792969 14.03125 19.433594C14.054688 18.914063 14.109375 18.390625 14.199219 17.890625C14.273438 17.460938 14.214844 16.980469 14.121094 16.25C13.976563 15.128906 13.761719 13.433594 13.996094 11.101563C14.316406 7.910156 16.1875 6 19.015625 6C19.234375 6 19.445313 5.929688 19.617188 5.800781C20.984375 4.773438 23.730469 4 26 4 Z M 20.527344 10.125C19.8125 10.0625 19.09375 10.390625 18.683594 11.015625L17.078125 13.449219C16.773438 13.910156 16.902344 14.53125 17.363281 14.835938C17.53125 14.949219 17.722656 15 17.910156 15C18.238281 15 18.554688 14.84375 18.75 14.550781L20.355469 12.117188L21.917969 12.878906C24.765625 14.265625 27.941406 15 31.109375 15L33.667969 15C34.21875 15 34.667969 14.550781 34.667969 14C34.667969 13.449219 34.21875 13 33.667969 13L31.109375 13C28.246094 13 25.367188 12.335938 22.792969 11.078125L21.230469 10.316406C21.003906 10.207031 20.765625 10.144531 20.527344 10.125 Z M 54.34375 30.417969C55.109375 30.414063 55.878906 30.707031 56.464844 31.292969L60.707031 35.535156C61.273438 36.101563 61.585938 36.855469 61.585938 37.65625C61.585938 38.457031 61.273438 39.210938 60.707031 39.777344L58.585938 41.898438L50.101563 33.414063L52.222656 31.292969C52.808594 30.707031 53.574219 30.417969 54.34375 30.417969 Z M 48.6875 34.828125L57.171875 43.3125L55.519531 44.972656L47.03125 36.488281 Z M 16.90625 34.941406C19.339844 37.910156 22.503906 40 26 40C29.496094 40 32.65625 37.910156 35.089844 34.941406L41.847656 38.859375L30.140625 50.609375C29.980469 50.765625 29.878906 50.972656 29.855469 51.199219L29.121094 57.507813L29.046875 58L3 58C2.449219 58 2 57.550781 2 57L2 49.917969C2 46.007813 4.101563 42.359375 7.488281 40.398438 Z M 45.621094 37.90625L54.109375 46.390625L41.453125 59.082031L41.003906 54.71875C40.949219 54.207031 40.523438 53.820313 40.011719 53.820313L38.183594 53.820313L38.183594 52.40625L43.546875 47.042969C43.9375 46.648438 43.9375 46.019531 43.546875 45.625C43.152344 45.234375 42.523438 45.234375 42.128906 45.625L36.8125 50.945313L33.019531 50.546875 Z M 18.0625 40C17.675781 39.976563 17.289063 40.183594 17.105469 40.550781C16.859375 41.046875 17.058594 41.648438 17.550781 41.894531L25.550781 45.894531C25.695313 45.964844 25.847656 46 26 46C26.152344 46 26.308594 45.964844 26.449219 45.894531L34.449219 41.894531C34.941406 41.648438 35.140625 41.046875 34.894531 40.550781C34.648438 40.058594 34.046875 39.859375 33.550781 40.105469L26 43.882813L18.449219 40.105469C18.324219 40.042969 18.195313 40.011719 18.0625 40 Z M 6 52C5.445313 52 5 52.449219 5 53L5 55C5 55.550781 5.445313 56 6 56C6.554688 56 7 55.550781 7 55L7 53C7 52.449219 6.554688 52 6 52 Z M 11 52C10.445313 52 10 52.449219 10 53L10 55C10 55.550781 10.445313 56 11 56C11.554688 56 12 55.550781 12 55L12 53C12 52.449219 11.554688 52 11 52 Z M 16 52C15.445313 52 15 52.449219 15 53L15 55C15 55.550781 15.445313 56 16 56C16.554688 56 17 55.550781 17 55L17 53C17 52.449219 16.554688 52 16 52 Z M 21 52C20.445313 52 20 52.449219 20 53L20 55C20 55.550781 20.445313 56 21 56C21.554688 56 22 55.550781 22 55L22 53C22 52.449219 21.554688 52 21 52 Z M 26 52C25.445313 52 25 52.449219 25 53L25 55C25 55.550781 25.445313 56 26 56C26.554688 56 27 55.550781 27 55L27 53C27 52.449219 26.554688 52 26 52 Z M 31.722656 52.421875L36.183594 52.890625L36.183594 54.816406C36.183594 55.371094 36.628906 55.816406 37.183594 55.816406L39.109375 55.816406L39.574219 60.328125L34.71875 60.84375L31.15625 57.28125Z" fill="#FFFFFF" />
</svg>